<svg xmlns="http://www.w3.org/2000/svg" viewBox="0 0 360 640" width="360" height="640" role="img" aria-labelledby="t d">
  <title id="t">NeoRack ad on DevNewsletter</title>
  <desc id="d">Illustrative mock creative: NeoRack sponsor block in an engineering newsletter. Skip the waitlist. Ship today.</desc>
  <defs></defs>
  <rect width="360" height="640" fill="#f4efe4"/>
  <rect y="240" width="360" height="400" fill="#c9362e"/>
  <text x="24" y="52" font-family="Georgia, 'Times New Roman', serif" font-size="30" font-weight="700" fill="#111111">DevNewsletter</text>
  <text x="24" y="76" font-family="ui-monospace, SFMono-Regular, Menlo, Consolas, monospace" font-size="13" font-weight="600" letter-spacing="0.6" fill="#555555">Engineering digest · Issue 212</text>
  <rect x="24" y="92" width="312" height="2" fill="#111111"/>
  <rect x="24" y="114" width="250" height="11" rx="5.5" fill="#111111" opacity="0.75"/>
  <rect x="24" y="136" width="312" height="7" rx="3.5" fill="#111111" opacity="0.2"/>
  <rect x="24" y="150" width="300" height="7" rx="3.5" fill="#111111" opacity="0.2"/>
  <rect x="24" y="164" width="190" height="7" rx="3.5" fill="#111111" opacity="0.2"/>
  <rect x="24" y="188" width="312" height="1.5" fill="#111111" opacity="0.25"/>
  <rect x="14" y="204" width="332" height="404" rx="6" fill="#c9362e" stroke="#111111" stroke-width="2.5"/>
  <rect x="24" y="214" width="110" height="26" fill="#111111"/>
  <text x="34" y="232" font-family="ui-monospace, SFMono-Regular, Menlo, Consolas, monospace" font-size="14" font-weight="700" letter-spacing="1" fill="#f4efe4">SPONSOR</text>
  <text x="336" y="232" text-anchor="end" font-family="ui-monospace, SFMono-Regular, Menlo, Consolas, monospace" font-size="14" font-weight="600" letter-spacing="0.8" fill="#f4efe4">DEVNEWSLETTER</text>
  <g transform="translate(34 281)">
    <rect x="0" y="0" width="30" height="8" rx="2.5" fill="#f4efe4"/><circle cx="25" cy="4" r="1.6" fill="#c9362e"/>
    <rect x="0" y="11" width="30" height="8" rx="2.5" fill="#f4efe4"/><circle cx="25" cy="15" r="1.6" fill="#c9362e"/>
    <rect x="0" y="22" width="30" height="8" rx="2.5" fill="#f4efe4"/><circle cx="25" cy="26" r="1.6" fill="#c9362e"/>
  </g>
  <text x="76" y="306" font-family="Inter, ui-sans-serif, system-ui, sans-serif" font-size="30" font-weight="800" letter-spacing="2.5" fill="#ffffff">NEORACK</text>
  <text x="34" y="372" font-family="Inter, ui-sans-serif, system-ui, sans-serif" font-size="32" font-weight="800" letter-spacing="-0.4" fill="#ffffff">Skip the waitlist.</text>
  <text x="34" y="410" font-family="Inter, ui-sans-serif, system-ui, sans-serif" font-size="32" font-weight="800" letter-spacing="-0.4" fill="#ffffff">Ship today.</text>
  <text x="34" y="452" font-family="Inter, ui-sans-serif, system-ui, sans-serif" font-size="20" font-weight="600" fill="#f4efe4">GPUs for builders</text>
  <rect x="34" y="476" width="292" height="62" rx="4" fill="#f4efe4" stroke="#111111" stroke-width="2.5"/>
  <text x="160" y="516" text-anchor="middle" font-family="Inter, ui-sans-serif, system-ui, sans-serif" font-size="24" font-weight="800" fill="#111111">Sign up</text>
  <path d="M212 501 l8 7 l-8 7" fill="none" stroke="#111111" stroke-width="3" stroke-linecap="round" stroke-linejoin="round"/>
  <text x="34" y="578" font-family="ui-monospace, SFMono-Regular, Menlo, Consolas, monospace" font-size="12" fill="#f4efe4" opacity="0.85">Sponsored · DevNewsletter</text>
</svg>
